<svg xmlns="http://www.w3.org/2000/svg"
 xmlns:xlink="http://www.w3.org/1999/xlink"
 width="36px" height="36px"  viewBox="0 0 36 36">
<path fill-rule="evenodd"  fill="#00b9e7"
 d="M19.36325,2.5302734 C19.36325,2.5302734 33.382812,16.604248 33.382812,16.604248 C34.156525,17.379395 34.156525,18.636719 33.382812,19.41211 C32.60907,20.187012 31.354523,20.187012 30.58078,19.41211 C30.58078,19.41211 16.561157,5.3376465 16.561157,5.3376465 C15.787323,4.5632324 15.787323,3.3059082 16.561157,2.5302734 C17.33487,1.7553711 18.589447,1.7553711 19.36325,2.5302734 ZM16.561157,30.604492 C16.561157,30.604492 30.58078,16.531006 30.58078,16.531006 C31.354523,15.755371 32.60907,15.755371 33.382812,16.531006 C34.156525,17.305908 34.156525,18.562256 33.382812,19.33789 C33.382812,19.33789 19.36325,33.412354 19.36325,33.412354 C18.589447,34.187744 17.33487,34.187744 16.561157,33.412354 C15.787323,32.63623 15.787323,31.379395 16.561157,30.604492 ZM3.9999084,15.998779 C3.9999084,15.998779 32.00003,15.998779 32.00003,15.998779 C33.104584,15.998779 33.99997,16.894775 33.99997,17.999756 C33.99997,19.10376 33.104584,19.999268 32.00003,19.999268 C32.00003,19.999268 3.9999084,19.999268 3.9999084,19.999268 C2.8953857,19.999268 1.9999695,19.10376 1.9999695,17.999756 C1.9999695,16.894775 2.8953857,15.998779 3.9999084,15.998779 Z"/>
</svg>